<?xml version="1.0" encoding="UTF-8"?>
<svg id="Layer_2" data-name="Layer 2" xmlns="http://www.w3.org/2000/svg" viewBox="0 0 18.17 24.48">
  <defs>
    <style>
      .cls-1 {
        fill: #8980aa;
      }

      .cls-1, .cls-2, .cls-3, .cls-4 {
        stroke-width: 0px;
      }

      .cls-3, .cls-5 {
        fill: #fff;
      }

      .cls-4 {
        fill: #635688;
      }

      .cls-5 {
        font-family: Merriweather-Regular, Merriweather;
        font-size: 2.33px;
      }
    </style>
  </defs>
  <g id="Layer_1-2" data-name="Layer 1">
    <g>
      <polygon class="cls-4" points=".91 1.33 .92 1.34 17.49 1.59 17.49 22.07 18.17 22.08 18.17 0 .91 1.33"/>
      <path class="cls-4" d="m.9,2.4v22.08h15.3V2.4H.9Zm.73,20.33c-.36,0-.66-.3-.66-.66s.3-.66.66-.66.66.3.66.66-.3.66-.66.66Zm0-2.16c-.36,0-.66-.3-.66-.66s.3-.66.66-.66.66.3.66.66-.3.66-.66.66Zm0-2.16c-.36,0-.66-.3-.66-.66s.3-.66.66-.66.66.3.66.66-.3.66-.66.66Zm0-2.16c-.36,0-.66-.3-.66-.66s.3-.66.66-.66.66.3.66.66-.3.66-.66.66Zm0-2.16c-.36,0-.66-.3-.66-.66s.3-.66.66-.66.66.3.66.66-.3.66-.66.66Zm0-2.16c-.36,0-.66-.3-.66-.66s.3-.66.66-.66.66.3.66.66-.3.66-.66.66Zm0-2.16c-.36,0-.66-.3-.66-.66s.3-.66.66-.66.66.3.66.66-.3.66-.66.66Zm0-2.16c-.36,0-.66-.3-.66-.66s.3-.66.66-.66.66.3.66.66-.3.66-.66.66Zm0-2.16c-.36,0-.66-.3-.66-.66s.3-.66.66-.66.66.3.66.66-.3.66-.66.66Z"/>
      <text class="cls-5" transform="translate(4.04 14.14)"><tspan x="0" y="0">ProdNote</tspan></text>
      <path class="cls-1" d="m.84,2.4v22.08h2.38V2.4H.84Zm.79,20.33c-.36,0-.66-.3-.66-.66s.3-.66.66-.66.66.3.66.66-.3.66-.66.66Zm0-2.16c-.36,0-.66-.3-.66-.66s.3-.66.66-.66.66.3.66.66-.3.66-.66.66Zm0-2.16c-.36,0-.66-.3-.66-.66s.3-.66.66-.66.66.3.66.66-.3.66-.66.66Zm0-2.16c-.36,0-.66-.3-.66-.66s.3-.66.66-.66.66.3.66.66-.3.66-.66.66Zm0-2.16c-.36,0-.66-.3-.66-.66s.3-.66.66-.66.66.3.66.66-.3.66-.66.66Zm0-2.16c-.36,0-.66-.3-.66-.66s.3-.66.66-.66.66.3.66.66-.3.66-.66.66Zm0-2.16c-.36,0-.66-.3-.66-.66s.3-.66.66-.66.66.3.66.66-.3.66-.66.66Zm0-2.16c-.36,0-.66-.3-.66-.66s.3-.66.66-.66.66.3.66.66-.3.66-.66.66Zm0-2.16c-.36,0-.66-.3-.66-.66s.3-.66.66-.66.66.3.66.66-.3.66-.66.66Z"/>
      <rect class="cls-4" x="0" y="4.6" width="1.79" height=".42"/>
      <rect class="cls-4" x="0" y="6.76" width="1.79" height=".42"/>
      <rect class="cls-4" x="0" y="8.91" width="1.79" height=".42"/>
      <rect class="cls-4" x="0" y="11.07" width="1.79" height=".42"/>
      <rect class="cls-4" x="0" y="13.23" width="1.79" height=".42"/>
      <rect class="cls-4" x="0" y="15.39" width="1.79" height=".42"/>
      <rect class="cls-4" x="0" y="17.55" width="1.79" height=".42"/>
      <rect class="cls-4" x="0" y="19.71" width="1.79" height=".42"/>
      <rect class="cls-4" x="0" y="21.87" width="1.79" height=".42"/>
      <path class="cls-2" d="m17.56,22.27c.1.27.2.53.3.8,0,.03.02.05.03.08l-2.87,1.11-.34-.88h0c.09-.03.18-.07.28-.1l.24.61,2.25-.87-.24-.61.35-.13h0Z"/>
      <path class="cls-2" d="m13.17,21.08l.27-.1-1-2.58.27-.11h0s.01.03.02.05c.46,1.19.92,2.37,1.38,3.56,0,.02.01.04.02.06l-.27.1-.31-.81-.27.1-.11-.28h0Z"/>
      <path class="cls-2" d="m13.27,18.07l.26-.1.45,1.15.61-.24.11.27h0c-.2.08-.4.15-.61.23l.45,1.15-.27.1s-.02-.06-.03-.08c-.31-.81-.62-1.61-.94-2.42-.01-.03-.02-.05-.02-.08h0Z"/>
      <path class="cls-2" d="m16.75,19.38l.27-.1.77,1.98-.27.1h0c-.26-.66-.51-1.32-.77-1.98h0Z"/>
      <path class="cls-2" d="m14.69,19.16l.83-.32.11.29h0c-.18.07-.36.14-.55.21l.34.87-.27.11s-.03-.07-.04-.1c-.14-.35-.28-.7-.41-1.06h0Z"/>
      <path class="cls-2" d="m15.63,19.12l.62-.24.1.27h0c-.11.04-.23.08-.35.13l.34.87-.27.11-.44-1.14h0Z"/>
      <path class="cls-2" d="m12.77,21.87l-.27.1-.32-.81.88-.34c.03.09.07.18.1.26,0,0,0,0,0,0l-.62.24.22.56h0Z"/>
      <path class="cls-2" d="m17.52,21.36l.31.81c-.09.04-.18.07-.27.1,0,0,0,0,0,0-.07-.16-.13-.33-.2-.5-.04-.1-.08-.2-.12-.31l.28-.11h0Z"/>
      <path class="cls-2" d="m13.73,22.5l-.35.14-.23-.6h0c.11-.04.23-.09.35-.13l.23.6h0Z"/>
      <path class="cls-2" d="m14.21,22.95l-.27.1c-.07-.19-.14-.37-.22-.56,0,0,0,0,0,0l.27-.1.21.55h0Z"/>
      <path class="cls-2" d="m14.69,23.38l-.27.1c-.07-.18-.14-.36-.21-.54,0,0,0,0,0,0l.27-.1.21.54h0Z"/>
      <path class="cls-2" d="m12.71,18.29l-.09-.23.56-.21c.03.08.06.16.09.23,0,0,0,0,0,0l-.56.22h0Z"/>
      <path class="cls-2" d="m16.36,19.15l.27-.1c.04.11.09.22.13.33h0c-.09.03-.18.07-.27.1l-.13-.33h0Z"/>
      <path class="cls-2" d="m13.14,22.03l-.27.1c-.04-.09-.07-.18-.1-.27,0,0,0,0,0,0l.27-.1.1.27h0Z"/>
      <path class="cls-3" d="m13.14,22.04l-.1-.27-.27.1c-.07-.18-.14-.36-.22-.56l.62-.24c.03.09.07.18.11.28l.27-.1.31.81.27-.1s-.01-.04-.02-.06c-.46-1.19-.92-2.37-1.38-3.56,0-.02-.01-.03-.02-.05l.56-.22s.01.05.02.08c.31.81.62,1.61.94,2.42,0,.03.02.05.03.08l.27-.1-.45-1.15.61-.24c.14.35.28.7.41,1.06.01.03.02.06.04.1l.27-.11-.34-.87.55-.21.44,1.14.27-.11-.34-.87.35-.13.13.33.27-.1c.26.66.51,1.32.77,1.98l-.28.11c.04.11.08.21.12.31.07.17.13.33.2.5-.11.04-.23.09-.35.13l.24.61-2.25.87-.24-.61-.28.11c-.07-.18-.14-.35-.21-.54l-.27.1-.21-.55-.27.1-.23-.6-.35.14Z"/>
    </g>
  </g>
</svg>