<svg width="25" height="22" viewBox="0 0 25 22" fill="none" xmlns="http://www.w3.org/2000/svg">
<path fill-rule="evenodd" clip-rule="evenodd" d="M3.06435 2.95763C2.2737 3.70846 1.74419 4.92675 1.74419 6.83784V15.1622C1.74419 17.0732 2.2737 18.2915 3.06435 19.0424C3.86669 19.8043 5.07555 20.2162 6.68605 20.2162H18.314C19.9244 20.2162 21.1333 19.8043 21.9357 19.0424C22.7263 18.2915 23.2558 17.0732 23.2558 15.1622V6.83784C23.2558 4.92675 22.7263 3.70846 21.9357 2.95763C21.1333 2.19568 19.9244 1.78378 18.314 1.78378H6.68605C5.07555 1.78378 3.86669 2.19568 3.06435 2.95763ZM1.87751 1.65048C3.11006 0.479992 4.80817 0 6.68605 0H18.314C20.1919 0 21.89 0.479992 23.1224 1.65048C24.3667 2.83208 25 4.58676 25 6.83784V15.1622C25 17.4133 24.3667 19.1679 23.1224 20.3495C21.89 21.52 20.1919 22 18.314 22H6.68605C4.80817 22 3.11006 21.52 1.87751 20.3495C0.633279 19.1679 0 17.4133 0 15.1622V6.83784C0 4.58676 0.633279 2.83208 1.87751 1.65048Z" fill="#9181F4"/>
<path fill-rule="evenodd" clip-rule="evenodd" d="M21.062 5.42375C21.3566 5.81352 21.2863 6.37365 20.9053 6.67483L14.4552 11.772C13.3036 12.682 11.6965 12.682 10.5448 11.772L4.09477 6.67483C3.71364 6.37365 3.64342 5.81352 3.93792 5.42375C4.23242 5.03397 4.7801 4.96215 5.16123 5.26334L11.6112 10.3605C12.1347 10.7742 12.8653 10.7742 13.3887 10.3605L19.8388 5.26334C20.2199 4.96215 20.7676 5.03397 21.062 5.42375Z" fill="#9181F4"/>
</svg>
