<svg width="25" height="25" viewBox="0 0 25 25" fill="none" xmlns="http://www.w3.org/2000/svg">
<path d="M9.05 17.1002C9.05 17.7353 8.53512 18.2502 7.9 18.2502C7.26488 18.2502 6.75 17.7353 6.75 17.1002C6.75 16.4651 7.26488 15.9502 7.9 15.9502C8.53512 15.9502 9.05 16.4651 9.05 17.1002Z" fill="#9181F4"/>
<path d="M13.6501 17.1002C13.6501 17.7353 13.1352 18.2502 12.5001 18.2502C11.865 18.2502 11.3501 17.7353 11.3501 17.1002C11.3501 16.4651 11.865 15.9502 12.5001 15.9502C13.1352 15.9502 13.6501 16.4651 13.6501 17.1002Z" fill="#9181F4"/>
<path d="M18.25 17.1002C18.25 17.7353 17.7351 18.2502 17.1 18.2502C16.4648 18.2502 15.95 17.7353 15.95 17.1002C15.95 16.4651 16.4648 15.9502 17.1 15.9502C17.7351 15.9502 18.25 16.4651 18.25 17.1002Z" fill="#9181F4"/>
<path d="M5.6001 10.2V7.9C5.6001 7.50819 5.63276 7.12399 5.6955 6.75M19.4001 10.2V7.9C19.4001 4.08923 16.3109 1 12.5001 1C10.4393 1 8.58943 1.90347 7.3251 3.33595" stroke="#9181F4" stroke-width="2" stroke-linecap="round"/>
<path d="M11.35 24.0002H7.9C4.64731 24.0002 3.02096 24.0002 2.01048 22.9897C1 21.9792 1 20.3529 1 17.1002C1 13.8475 1 12.2212 2.01048 11.2107C3.02096 10.2002 4.64731 10.2002 7.9 10.2002H17.1C20.3527 10.2002 21.979 10.2002 22.9895 11.2107C24 12.2212 24 13.8475 24 17.1002C24 20.3529 24 21.9792 22.9895 22.9897C21.979 24.0002 20.3527 24.0002 17.1 24.0002H15.95" stroke="#9181F4" stroke-width="2" stroke-linecap="round"/>
</svg>
